<svg width="434" height="319" viewBox="0 0 434 319" fill="none" xmlns="http://www.w3.org/2000/svg">
<g clip-path="url(#clip0)">
<path opacity="0.1" d="M31.3868 128.012C40.5198 148.664 28.8669 172.455 15.1718 190.387C10.5791 196.39 5.53051 202.673 4.88629 210.228C4.11937 219.443 10.3512 227.915 17.7487 233.453C31.2334 243.544 49.6571 246.664 65.7056 241.574C79.5759 237.187 91.2375 227.24 105.226 223.229C128.637 216.52 153.433 227.643 173.465 241.495C187.642 251.298 202.827 263.215 219.919 261.122C231.953 259.647 242.164 251.192 249.088 241.232C252.432 236.406 255.342 231.039 260.215 227.793C263.112 225.862 266.513 224.84 269.918 224.111C300.989 217.464 333.958 233.69 364.617 225.344C385.324 219.706 401.837 203.318 412.101 184.455C422.365 165.592 427.159 144.286 431.151 123.176C433.987 108.175 436.34 91.9884 429.837 78.1846C422.939 63.5823 406.974 54.7323 390.929 53.0781C374.885 51.424 358.789 56.0091 344.007 62.4766C325.535 70.5632 307.431 81.8835 287.268 81.923C273.538 81.9493 260.447 76.6577 247.317 72.6517C225.326 65.9254 202.538 62.5819 179.78 59.4974C158.004 56.5444 136.017 53.7933 114.109 55.5484C98.6088 56.7814 84.9225 62.7135 69.882 65.4559C60.0785 67.2461 50.2268 65.8946 40.6074 68.9265C28.7749 72.6342 16.5742 81.2385 15.9212 94.7746C15.3033 107.644 26.5398 117.047 31.3868 128.012Z" fill="#001334"/>
<g opacity="0.5">
<path opacity="0.5" d="M305.844 80.3659C303.653 80.9977 300.932 82.6299 299.599 87.1098C296.97 95.8852 303.053 101.888 301.059 111.001C300.514 113.424 299.469 115.706 297.991 117.701C295.55 121.014 292.894 122.584 290.326 124.906C287.062 127.87 284.723 131.716 283.59 135.98C282.349 140.687 282.246 145.622 283.288 150.376C284.204 154.352 285.764 157.243 287.123 160.468C288.814 164.583 290.134 168.842 291.067 173.192C291.585 175.307 291.879 177.47 291.943 179.647C291.987 182.38 291.562 185.351 291.146 188.282L287.434 214.217C286.939 217.671 286.439 221.181 286.421 224.467C286.395 228.263 287.004 231.523 287.609 234.704C288.924 241.566 290.313 248.687 293.306 252.307C296.299 255.927 301.374 254.672 304.499 247.283C307.47 240.263 307.532 230.873 310.152 223.361C314.28 211.515 322.493 209.935 327.046 198.646C331.429 187.817 330.079 174.513 332.305 162.175C333.892 153.325 337.271 145.251 339.273 136.507C342.153 123.91 341.868 110.834 339.567 101.155C337.266 91.4755 333.138 84.8282 328.58 79.7867C326.648 77.6499 324.584 75.75 322.156 75.5613C319.574 75.3639 317.335 78.6327 314.771 79.5936C311.8 80.7037 308.838 79.5146 305.844 80.3659Z" fill="#001334"/>
<path opacity="0.5" d="M319.819 76.1758C319.819 76.1758 315.437 188.185 297.062 254.238" stroke="#535461" stroke-width="2" stroke-miterlimit="10"/>
<path opacity="0.5" d="M299.486 87.6582C299.486 87.6582 319.11 105.564 315.407 139.683" stroke="#535461" stroke-width="2" stroke-miterlimit="10"/>
<path opacity="0.5" d="M282.999 138.607C282.999 138.607 315.254 145.101 312.861 164.416" stroke="#535461" stroke-width="2" stroke-miterlimit="10"/>
<path opacity="0.5" d="M339.607 100.888C339.607 100.888 326.56 112.326 314.929 144.725" stroke="#535461" stroke-width="2" stroke-miterlimit="10"/>
<path opacity="0.5" d="M326.849 198.807C326.849 198.807 317.944 205.828 310.796 181.34" stroke="#535461" stroke-width="2" stroke-miterlimit="10"/>
<path opacity="0.5" d="M288.433 213.089C288.433 213.089 306.594 210.716 308.268 199.325" stroke="#535461" stroke-width="2" stroke-miterlimit="10"/>
</g>
<path d="M349.744 5.2388C345.247 5.90573 339.839 7.9899 337.617 14.4267C333.257 27.0457 346.518 36.5978 343.464 49.7829C342.548 53.7318 340.291 56.9436 337.911 59.2867C333.248 63.8762 327.941 65.8682 322.901 68.9835C317.861 72.0988 312.629 76.9867 310.267 84.4941C307.992 91.7163 308.978 99.6975 311.34 105.66C313.703 111.623 317.279 116.068 320.473 120.974C324.364 127.013 327.617 133.44 330.18 140.152C331.324 143.105 332.372 146.22 332.744 149.757C333.156 153.789 332.635 158.129 332.117 162.376L327.507 200.11C326.894 205.134 326.276 210.246 326.631 215.086C327.029 220.671 328.677 225.542 330.303 230.298C333.809 240.556 337.56 251.214 344.165 256.896C350.769 262.578 361.147 261.337 366.73 250.824C372.046 240.815 371.068 227.016 375.6 216.266C382.743 199.325 399.55 197.956 407.635 181.875C415.397 166.448 411.054 146.712 414.169 128.784C416.405 115.936 422.448 104.454 425.564 91.8128C430.034 73.5994 427.9 54.3154 421.983 39.7877C416.067 25.2599 406.741 14.9795 396.714 7.01583C392.463 3.64167 387.949 0.592213 382.918 0.0305852C377.554 -0.566144 373.277 3.9532 368.11 5.08962C362.106 6.43665 355.839 4.33493 349.744 5.2388Z" fill="#001334"/>
<path d="M378.168 0.719727C378.168 0.719727 382.397 165.154 352.154 260.24" stroke="#535461" stroke-width="2" stroke-miterlimit="10"/>
<path d="M337.442 15.2168C337.442 15.2168 380.223 43.9212 376.559 93.7218" stroke="#535461" stroke-width="2" stroke-miterlimit="10"/>
<path d="M309.359 88.2939C309.359 88.2939 376.884 101.685 374.219 129.841" stroke="#535461" stroke-width="2" stroke-miterlimit="10"/>
<path d="M422.045 39.4629C422.045 39.4629 396.382 54.7585 376.166 101.088" stroke="#535461" stroke-width="2" stroke-miterlimit="10"/>
<path d="M407.24 182.147C407.24 182.147 389.641 191.423 371.949 154.505" stroke="#535461" stroke-width="2" stroke-miterlimit="10"/>
<path d="M329.396 198.623C329.396 198.623 366.704 197.28 368.838 180.712" stroke="#535461" stroke-width="2" stroke-miterlimit="10"/>
<path opacity="0.1" d="M213.954 274.579C317.465 274.579 401.377 266.509 401.377 256.554C401.377 246.599 317.465 238.529 213.954 238.529C110.443 238.529 26.5312 246.599 26.5312 256.554C26.5312 266.509 110.443 274.579 213.954 274.579Z" fill="#001334"/>
<path d="M29.4715 235.099C29.4715 235.099 33.144 239.925 27.7755 247.165C22.4071 254.405 17.9808 260.556 19.7908 265.08C19.7908 265.08 27.8895 251.596 34.4807 251.408C41.0718 251.219 36.7244 243.207 29.4715 235.099Z" fill="#001334"/>
<path opacity="0.1" d="M29.4717 235.099C29.7917 235.564 30.044 236.072 30.2211 236.608C36.6545 244.172 40.0771 251.232 33.8979 251.412C28.1394 251.579 21.2327 261.886 19.5762 264.492C19.6308 264.693 19.6967 264.891 19.7734 265.084C19.7734 265.084 27.8721 251.601 34.4633 251.412C41.0544 251.223 36.7246 243.207 29.4717 235.099Z" fill="black"/>
<path d="M36.2993 241.228C36.2993 242.922 36.1109 244.299 35.8611 244.299C35.6113 244.299 35.4229 242.926 35.4229 241.228C35.4229 239.53 35.6595 240.351 35.8918 240.351C36.124 240.351 36.2993 239.534 36.2993 241.228Z" fill="#FFD037"/>
<path d="M38.6357 243.246C37.1501 244.058 35.8573 244.563 35.7477 244.339C35.6381 244.115 36.7469 243.308 38.2325 242.501C39.7182 241.693 39.1309 242.281 39.2449 242.501C39.3588 242.72 40.1257 242.43 38.6357 243.246Z" fill="#FFD037"/>
<path d="M10.0711 235.099C10.0711 235.099 6.39859 239.925 11.7671 247.165C17.1355 254.405 21.5442 260.556 19.7913 265.08C19.7913 265.08 11.6926 251.596 5.10139 251.408C-1.48977 251.219 2.82253 243.207 10.0711 235.099Z" fill="#001334"/>
<path opacity="0.1" d="M10.0708 235.099C9.75079 235.564 9.49846 236.072 9.32142 236.608C2.88802 244.172 -0.534651 251.232 5.64456 251.412C11.4031 251.579 18.3098 261.886 19.9663 264.492C19.9117 264.693 19.8458 264.891 19.7691 265.084C19.7691 265.084 11.6704 251.601 5.07923 251.412C-1.51193 251.223 2.82228 243.207 10.0708 235.099Z" fill="black"/>
<path d="M3.24707 241.228C3.24707 242.922 3.43551 244.299 3.68531 244.299C3.93511 244.299 4.12355 242.926 4.12355 241.228C4.12355 239.53 3.8869 240.351 3.65464 240.351C3.42237 240.351 3.24707 239.534 3.24707 241.228Z" fill="#FFD037"/>
<path d="M0.902834 243.246C2.38847 244.058 3.68129 244.563 3.79085 244.339C3.90041 244.115 2.79166 243.308 1.30602 242.501C-0.179625 241.693 0.40762 242.281 0.293677 242.501C0.179735 242.72 -0.582807 242.43 0.902834 243.246Z" fill="#FFD037"/>
<path d="M4.41309 264.452C4.41309 264.452 14.6811 264.136 17.7751 261.929C20.8691 259.722 33.5518 257.103 34.3363 260.613C35.1207 264.123 49.7668 278.212 38.1753 278.304C26.5838 278.396 11.2409 276.496 8.15129 274.614C5.06168 272.732 4.41309 264.452 4.41309 264.452Z" fill="#A8A8A8"/>
<path opacity="0.2" d="M38.3856 277.093C26.7941 277.185 11.4513 275.285 8.36166 273.403C6.0083 271.968 5.07046 266.821 4.75931 264.447H4.41748C4.41748 264.447 5.06608 272.74 8.15569 274.622C11.2453 276.505 26.5882 278.409 38.1972 278.317C41.5454 278.29 42.6979 277.097 42.6366 275.333C42.1414 276.399 40.8748 277.066 38.3856 277.093Z" fill="black"/>
<path d="M138.06 197.864C138.06 197.864 189.443 164.995 224.967 164.995C224.967 164.995 267.735 158.326 314.255 169.598C360.774 180.87 377.958 195.485 390.855 191.194L336.671 192.783L138.06 197.864Z" fill="#8CD0F3"/>
<path opacity="0.1" d="M138.06 197.864C138.06 197.864 189.443 164.995 224.967 164.995C224.967 164.995 267.735 158.326 314.255 169.598C360.774 180.87 377.958 195.485 390.855 191.194L336.671 192.783L138.06 197.864Z" fill="#8CD0F3"/>
<path d="M380.254 248.169H66.8755L75.4913 213.607L128.782 199.422L380.254 206.039V248.169Z" fill="#121C3F"/>
<path d="M396.75 226.572V237.603C396.75 237.603 387.446 244.36 386.6 249.652C386.6 249.652 373.277 253.039 369.473 253.039C369.127 253.039 368.75 253.039 368.356 253.079C368.95 251.482 369.415 249.84 369.745 248.169C370.678 243.479 370.561 238.64 369.401 234C368.241 229.361 366.068 225.037 363.039 221.34C360.009 217.643 356.198 214.665 351.88 212.62C347.562 210.575 342.845 209.514 338.069 209.514C333.292 209.514 328.575 210.575 324.258 212.62C319.94 214.665 316.129 217.643 313.099 221.34C310.069 225.037 307.896 229.361 306.737 234C305.577 238.64 305.46 243.479 306.393 248.169C306.841 250.43 307.53 252.636 308.448 254.75H290.384C290.384 254.75 290.217 254.807 289.946 254.926C288.977 255.365 286.694 256.523 286.365 258.344H136.657L133.589 258.318C134.241 257.222 134.827 256.088 135.342 254.921C136.304 252.761 137.019 250.499 137.472 248.178C138.363 243.745 138.317 239.174 137.336 234.761C136.354 230.347 134.46 226.188 131.776 222.552C129.091 218.916 125.675 215.884 121.748 213.651C117.821 211.418 113.47 210.033 108.976 209.586C104.482 209.14 99.9443 209.641 95.6554 211.058C91.3666 212.474 87.4219 214.775 84.0756 217.811C80.7292 220.848 78.0555 224.553 76.2268 228.687C74.3981 232.822 73.455 237.294 73.4582 241.815C73.4581 243.947 73.6666 246.073 74.0806 248.164C74.7868 251.705 76.0815 255.101 77.9108 258.212C75.7722 257.69 71.1049 256.207 71.1049 256.207C71.1049 256.207 51.2306 254.092 46.1558 249.625L46.9227 249.095L50.1744 246.87L48.6932 241.166C48.5144 240.925 48.3671 240.663 48.2549 240.385C47.8605 239.433 47.5143 237.665 48.9079 235.444C51.0202 232.057 49.9641 219.991 49.9641 219.991C49.9641 219.991 78.7215 200.093 135.391 195.643C135.391 195.643 136.745 196.696 139.541 196.916C141.434 197.069 143.989 196.837 147.236 195.643C147.236 195.643 151.886 197.758 171.778 186.328C171.778 186.328 205.615 163.038 250.022 165.162C250.022 165.162 295.695 162.407 334.602 177.448C351.37 183.924 364.127 187.377 373.22 189.202C381.617 190.892 386.889 191.203 389.304 191.229H389.356C390.145 191.229 390.614 191.229 390.781 191.229H390.851C390.851 191.229 390.851 196.271 391.118 202.225V202.256C391.215 204.327 391.346 206.507 391.53 208.627V208.758C392.038 214.66 392.915 220.022 394.436 221.083L396.75 226.572Z" fill="#2856B8"/>
<path d="M54.5351 219.509C54.5351 219.509 67.2748 209.558 83.1348 211.677C83.1348 211.677 68.7035 223.111 62.2 222.37L61.0912 221.418L54.5176 221.786C54.5176 221.786 53.5359 220.251 54.5351 219.509Z" fill="#8CD0F3"/>
<path opacity="0.2" d="M66.9024 236.727V242.602C66.9024 242.602 66.4641 248.214 61.4024 248.424L46.9404 249.139L50.1878 246.915L48.7065 241.211C48.527 240.972 48.3796 240.711 48.2683 240.434C49.583 239.223 52.6814 237.179 58.9833 236.74L66.9024 236.727Z" fill="white"/>
<path opacity="0.2" d="M134.198 212.102L145.299 211.663C145.299 211.663 140.807 215.208 137.634 215.529C134.461 215.849 134.198 212.102 134.198 212.102Z" fill="white"/>
<path opacity="0.2" d="M157.565 245.818C157.565 245.818 257.954 231.843 282.219 236.288C282.219 236.288 289.354 236.766 292.053 239.623C294.753 242.479 292.053 240.627 292.053 240.627L157.565 245.818Z" fill="white"/>
<path opacity="0.5" d="M213.762 206.595C213.762 206.595 215.033 204.212 217.092 204.16L230.467 203.471C230.467 203.471 230.257 205.322 227.878 206.011L213.762 206.595Z" fill="#18218A"/>
<path opacity="0.5" d="M291.155 202.572C291.155 202.572 292.426 200.19 294.485 200.137L307.861 199.431C307.861 199.431 307.65 201.282 305.271 201.971L291.155 202.572Z" fill="#18218A"/>
<path d="M245.486 169.927L235.222 196.876L198.217 196.916H188.69H180.403H173.237H165.121C165.121 196.916 170.064 193.283 178.027 188.654C180.657 187.118 183.641 185.477 186.88 183.827C189.86 182.3 193.068 180.756 196.438 179.29C199.067 178.132 201.837 177.017 204.668 175.977C217.504 171.278 231.931 168.123 245.486 169.927Z" fill="#8CD0F3"/>
<path d="M303.632 189.607C303.632 189.607 288.171 191.902 273.415 193.6C267.775 194.249 262.24 194.811 257.709 195.122L257.078 195.166C255.325 195.28 253.699 195.355 252.318 195.381C250.127 195.421 248.488 195.324 247.668 195.061L251.933 169.283C251.933 169.283 257.191 169.34 264.97 169.722L266.671 169.814C268.288 169.906 269.993 170.012 271.772 170.134C274.314 170.31 276.991 170.521 279.752 170.775C293.083 171.999 308.185 174.197 317.748 178.155C338.095 186.588 303.632 189.607 303.632 189.607Z" fill="#8CD0F3"/>
<path d="M374.889 202.572V209.452C374.889 209.452 363.789 209.61 366.168 207.39C367.708 205.916 369.107 204.3 370.345 202.563L374.889 202.572Z" fill="#8CD0F3"/>
<path d="M391.521 208.75L382.506 209.456V201.185C382.506 201.185 386.683 195.31 390.859 201.822L391.1 202.203L391.521 208.75Z" fill="#8CD0F3"/>
<path d="M105.787 267.646C120.036 267.646 131.586 256.082 131.586 241.816C131.586 227.55 120.036 215.985 105.787 215.985C91.5385 215.985 79.9878 227.55 79.9878 241.816C79.9878 256.082 91.5385 267.646 105.787 267.646Z" fill="#182A7C"/>
<path d="M126.481 241.793C126.49 247.124 124.455 252.254 120.794 256.124C117.134 259.994 112.129 262.309 106.812 262.59C101.496 262.871 96.2752 261.097 92.228 257.635C88.1807 254.172 85.6165 249.285 85.0649 243.984C84.5134 238.683 86.0166 233.372 89.2642 229.148C92.5118 224.925 97.2555 222.112 102.515 221.29C107.775 220.468 113.15 221.7 117.528 224.732C121.907 227.764 124.955 232.364 126.043 237.581C126.331 238.967 126.478 240.378 126.481 241.793Z" fill="#3F8FFE"/>
<path opacity="0.5" d="M105.757 259.643C115.581 259.643 123.545 251.649 123.545 241.789C123.545 231.929 115.581 223.936 105.757 223.936C95.9323 223.936 87.9683 231.929 87.9683 241.789C87.9683 251.649 95.9323 259.643 105.757 259.643Z" fill="#18218A"/>
<path d="M111.708 221.861V222.616L105.788 242.242L101.037 221.536C104.562 220.714 108.24 220.826 111.708 221.861Z" fill="#3F8FFE"/>
<path d="M111.664 261.736C108.273 262.741 104.682 262.865 101.229 262.096L105.783 242.241L111.664 261.736Z" fill="#3F8FFE"/>
<path d="M126.481 241.794C126.484 243.959 126.15 246.111 125.491 248.173H125.407L105.805 242.246L126.078 237.586C126.354 238.971 126.489 240.381 126.481 241.794Z" fill="#3F8FFE"/>
<path d="M105.787 242.241L86.1843 248.169H86.0309C84.9392 244.742 84.7445 241.092 85.4656 237.568L105.787 242.241Z" fill="#3F8FFE"/>
<path d="M105.757 244.066C107.013 244.066 108.031 243.047 108.031 241.789C108.031 240.531 107.013 239.512 105.757 239.512C104.501 239.512 103.482 240.531 103.482 241.789C103.482 243.047 104.501 244.066 105.757 244.066Z" fill="#182A7C"/>
<path d="M337.911 267.646C352.159 267.646 363.71 256.082 363.71 241.816C363.71 227.55 352.159 215.985 337.911 215.985C323.662 215.985 312.111 227.55 312.111 241.816C312.111 256.082 323.662 267.646 337.911 267.646Z" fill="#182A7C"/>
<path d="M358.609 241.793C358.618 247.124 356.583 252.254 352.922 256.124C349.262 259.994 344.257 262.309 338.94 262.59C333.624 262.871 328.403 261.097 324.356 257.635C320.309 254.172 317.744 249.285 317.193 243.984C316.641 238.683 318.145 233.372 321.392 229.148C324.64 224.925 329.383 222.112 334.643 221.29C339.903 220.468 345.278 221.7 349.656 224.732C354.035 227.764 357.083 232.364 358.171 237.581C358.459 238.967 358.606 240.378 358.609 241.793Z" fill="#3F8FFE"/>
<path opacity="0.5" d="M337.884 259.643C347.709 259.643 355.673 251.649 355.673 241.789C355.673 231.929 347.709 223.936 337.884 223.936C328.06 223.936 320.096 231.929 320.096 241.789C320.096 251.649 328.06 259.643 337.884 259.643Z" fill="#18218A"/>
<path d="M343.832 221.861V222.616L337.911 242.242L333.161 221.536C336.685 220.714 340.363 220.826 343.832 221.861Z" fill="#3F8FFE"/>
<path d="M343.792 261.736C340.401 262.741 336.81 262.865 333.358 262.096L337.911 242.241L343.792 261.736Z" fill="#3F8FFE"/>
<path d="M358.61 241.794C358.613 243.959 358.279 246.112 357.619 248.174H357.519L337.912 242.242L358.185 237.582C358.468 238.968 358.611 240.379 358.61 241.794Z" fill="#3F8FFE"/>
<path d="M337.911 242.241L318.308 248.169H318.155C317.063 244.742 316.869 241.092 317.59 237.568L337.911 242.241Z" fill="#3F8FFE"/>
<path d="M337.885 244.066C339.141 244.066 340.16 243.047 340.16 241.789C340.16 240.531 339.141 239.512 337.885 239.512C336.629 239.512 335.611 240.531 335.611 241.789C335.611 243.047 336.629 244.066 337.885 244.066Z" fill="#182A7C"/>
<path opacity="0.2" d="M186.884 183.854L180.403 196.934H173.237L178.027 188.681C180.67 187.145 183.646 185.509 186.884 183.854Z" fill="white"/>
<path opacity="0.2" d="M204.668 176.005L198.213 196.921H188.686L196.442 179.309C199.089 178.159 201.842 177.054 204.668 176.005Z" fill="white"/>
<path opacity="0.2" d="M271.781 170.155L257.718 195.126L257.086 195.169C255.333 195.284 253.708 195.358 252.327 195.384L264.979 169.747L266.68 169.839C268.275 169.927 269.993 170.032 271.781 170.155Z" fill="white"/>
<path opacity="0.2" d="M165.366 196.846L157.338 252.214L224.393 250.744L235.402 197.087L165.366 196.846Z" stroke="white" stroke-miterlimit="10"/>
<path opacity="0.5" d="M289.95 254.909C288.981 255.347 286.698 256.506 286.369 258.327H136.657L133.589 258.3C134.241 257.205 134.827 256.071 135.342 254.904L289.95 254.909Z" fill="#18218A"/>
<path d="M160.515 294.92C161.536 293.968 162.496 292.845 162.794 291.48C163.092 290.116 162.509 288.475 161.203 287.97C159.744 287.408 158.179 288.409 156.996 289.449C155.812 290.489 154.454 291.643 152.907 291.423C153.704 290.7 154.3 289.782 154.637 288.759C154.974 287.736 155.041 286.644 154.831 285.588C154.763 285.151 154.578 284.742 154.296 284.403C153.485 283.525 152.013 283.907 151.044 284.592C147.977 286.785 147.1 290.967 147.078 294.749C146.767 293.385 147.03 291.963 147.021 290.563C147.013 289.164 146.631 287.615 145.452 286.86C144.718 286.465 143.893 286.271 143.06 286.298C141.67 286.246 140.123 286.386 139.177 287.404C137.998 288.668 138.3 290.787 139.33 292.178C140.36 293.569 141.916 294.442 143.349 295.403C144.499 296.089 145.48 297.027 146.219 298.145C146.307 298.301 146.379 298.466 146.434 298.637H155.138C157.089 297.646 158.898 296.396 160.515 294.92Z" fill="#001334"/>
<path d="M342.425 302.3C343.228 301.644 343.813 300.76 344.103 299.764C344.322 298.755 343.893 297.548 342.929 297.179C341.85 296.767 340.698 297.513 339.826 298.272C338.954 299.031 337.95 299.891 336.806 299.729C337.394 299.195 337.834 298.518 338.083 297.764C338.332 297.01 338.381 296.204 338.226 295.424C338.177 295.101 338.04 294.798 337.832 294.547C337.231 293.906 336.149 294.183 335.43 294.687C333.151 296.293 332.516 299.391 332.503 302.181C332.275 301.177 332.468 300.128 332.459 299.11C332.45 298.092 332.17 296.916 331.302 296.381C330.764 296.091 330.16 295.948 329.549 295.964C328.524 295.925 327.384 296.03 326.683 296.78C325.806 297.71 326.039 299.277 326.797 300.29C327.555 301.304 328.703 301.958 329.764 302.668C330.614 303.174 331.339 303.866 331.885 304.691C331.949 304.806 332.002 304.926 332.043 305.051H338.463C339.901 304.317 341.234 303.392 342.425 302.3Z" fill="#001334"/>
<path d="M370.91 316.258C371.714 315.602 372.299 314.718 372.589 313.722C372.808 312.713 372.379 311.506 371.414 311.137C370.336 310.725 369.184 311.471 368.312 312.23C367.44 312.989 366.436 313.849 365.292 313.687C365.88 313.153 366.32 312.476 366.569 311.722C366.818 310.968 366.867 310.162 366.712 309.382C366.663 309.059 366.526 308.756 366.318 308.505C365.717 307.864 364.635 308.141 363.916 308.645C361.637 310.251 361.002 313.349 360.989 316.139C360.761 315.135 360.954 314.086 360.945 313.068C360.936 312.05 360.656 310.874 359.788 310.339C359.25 310.049 358.645 309.906 358.035 309.922C357.009 309.883 355.87 309.988 355.169 310.738C354.292 311.668 354.525 313.235 355.283 314.248C356.041 315.262 357.189 315.916 358.25 316.626C359.1 317.132 359.825 317.824 360.371 318.649C360.435 318.764 360.488 318.884 360.528 319.009H366.949C368.387 318.275 369.72 317.35 370.91 316.258Z" fill="#001334"/>
<path d="M288.552 286.926C288.552 286.926 287.022 287.76 286.325 283.038C285.887 279.967 284.612 273.635 283.775 269.524L283.67 269.002C283.909 268.927 284.145 268.839 284.375 268.739C284.375 268.739 279.502 249.872 280.615 245.695C281.728 241.517 280.615 234.032 280.615 234.032L277.692 224.177C277.692 224.177 270.452 221.676 267.669 220.983C264.886 220.29 257.09 215.428 257.09 215.428C257.224 215.584 257.35 215.746 257.467 215.915L257.156 215.726C256.587 215.194 256.073 214.606 255.622 213.971C257.177 212.315 258.184 210.219 258.506 207.969C259.546 205.994 260.037 203.776 259.927 201.546C259.818 199.316 259.112 197.156 257.883 195.293C258.357 194.7 258.718 194.024 258.948 193.301C259.041 192.97 259.081 192.626 259.067 192.283C259.117 191.732 258.998 191.179 258.725 190.699C258.453 190.218 258.04 189.832 257.542 189.593C257.209 189.455 256.852 189.385 256.492 189.389C256.132 189.393 255.776 189.47 255.447 189.615C254.829 189.896 254.342 190.423 253.667 190.563C252.541 190.795 251.577 189.892 250.692 189.22C249.316 188.194 247.675 187.585 245.963 187.465C245.22 187.382 244.468 187.481 243.772 187.755C243.111 188.129 242.501 188.588 241.958 189.119C239.95 190.738 237.137 191.19 234.617 192.072C234.135 192.239 233.6 192.511 233.513 192.95C233.494 193.037 233.494 193.126 233.513 193.213C233.492 193.325 233.501 193.44 233.539 193.547C228.841 194.336 224.244 197.908 224.244 197.908L223.473 198.623C223.22 198.487 222.934 198.427 222.648 198.451C222.362 198.475 222.09 198.582 221.864 198.759L220.313 199.979C220.032 200.199 219.842 200.514 219.777 200.865C219.713 201.215 219.778 201.578 219.962 201.883L208.616 212.414L208.371 212.642V212.602C208.371 212.602 199.606 219.267 199.606 223.984C199.606 227.393 202.235 229.495 203.668 230.403C202.383 231.614 201.411 233.12 200.837 234.791V234.835V234.896V234.945V234.997V235.041V235.089V235.133V235.177V235.217V235.256V235.291V235.331V235.361V235.41V235.454V235.48V235.506V235.699V235.752V235.857V235.932V236.006L200.802 236.2V236.278L200.78 236.41V236.463V236.59V236.682L200.75 236.858L200.71 237.077V237.121L200.68 237.305V237.393L200.645 237.595V237.647L200.605 237.876V237.977L200.504 238.551L200.452 238.863V238.916L200.395 239.236V239.28L200.338 239.604V239.631L200.276 239.973V240.048L200.215 240.385V240.46L200.158 240.793V240.833L200.092 241.21V241.28L199.943 242.123L199.869 242.562V242.628L199.794 243.066V243.097L199.632 243.975V244.049L199.553 244.488V244.549L199.382 245.475V245.515L199.295 245.984V246.024L199.119 246.98V247.042L199.032 247.515V247.551L198.848 248.529V248.582L198.756 249.064V249.099L198.567 250.091V250.131L198.475 250.613V250.653L197.673 251.644V251.688L197.577 252.166V252.193L197.38 253.167V253.193L197.283 253.667V253.693L197.09 254.624V254.663L196.998 255.102V255.141L196.81 256.019V256.05L196.718 256.488V256.532L196.534 257.361V257.383L196.446 257.774V257.813C196.385 258.077 196.325 258.331 196.267 258.577L196.179 258.937V258.967C196.12 259.207 196.063 259.437 196.008 259.656L195.925 259.972V260.007L195.846 260.31C195.495 261.626 195.188 262.504 194.969 262.71C194.747 262.943 194.573 263.217 194.457 263.517L194.421 263.605L194.386 263.702L194.356 263.798L194.211 263.93L194.18 264.031L194.154 264.123L194.128 264.228V264.325L194.106 264.43V264.527C194.106 264.597 194.094 264.667 194.071 264.737V264.825V264.943V265.036V265.154V265.246V265.365V265.457V265.575V265.663C194.071 265.808 194.071 265.948 194.071 266.102C194.071 266.128 194.071 266.154 194.071 266.185C194.071 266.216 194.071 266.26 194.071 266.299C194.071 266.339 194.071 266.356 194.071 266.383C194.071 266.409 194.071 266.457 194.071 266.492C194.071 266.527 194.071 266.545 194.071 266.576C194.071 266.606 194.071 266.646 194.071 266.681V266.76C194.071 266.795 194.071 266.83 194.071 266.865V266.935C194.071 267 194.071 267.063 194.071 267.124V267.817V267.914V268.19L195.386 268.59C195.386 268.59 196.047 268.954 197.068 269.428C196.924 273.855 196.516 279.848 195.408 283.517C192.936 283.644 186.831 283.903 185.727 283.46C184.333 282.902 175.424 281.516 178.211 287.9C179.377 290.576 181.914 292.595 184.465 294.043C184.149 294.147 183.827 294.23 183.501 294.293C181.23 294.732 180.599 295.491 180.687 296.272C180.525 297.588 182.76 299.058 182.944 299.15C183.224 299.29 192.686 300.817 194.917 300.12C197.147 299.422 206.193 297.759 206.193 297.759C206.193 297.759 206.193 297.658 206.193 297.483C206.193 297.483 206.07 294.754 205.728 292.165C206.754 292.016 207.871 291.88 208.958 291.796C209.098 292.452 209.385 293.068 209.798 293.597C210.211 294.125 210.739 294.552 211.342 294.846C217.328 297.917 219.279 293.736 219.279 293.736C219.279 293.736 227.373 295.293 231.896 294.174C232.369 294.613 232.772 294.925 233.057 295.135C234.525 296.193 238.478 296.917 242.9 296.969C244.077 297.086 245.264 297.052 246.432 296.868C248.384 296.739 250.32 296.435 252.217 295.96C257.542 294.578 258.712 289.62 258.966 287.369C259.176 287.308 259.325 287.088 259.404 286.676C259.509 286.451 259.572 286.208 259.588 285.961C259.705 284.942 259.895 283.933 260.158 282.942L266.731 283.31C269.668 288.646 272.262 292.889 272.262 292.889L276.715 292.331C274.734 290.744 272.999 288.872 271.565 286.777C269.339 283.446 269.339 267.471 269.339 267.471L269.589 257.743V257.844V257.375C270.001 260.257 273.266 268.62 273.634 268.743C273.901 268.831 274.164 268.91 274.423 268.985L274.659 269.608C276.517 274.539 281.233 287.158 281.566 289.15C282.004 291.651 299.385 292.621 303.281 291.371C307.177 290.12 288.552 286.926 288.552 286.926ZM226.466 231.676L220.094 241.259C217.806 237.31 215.422 233.677 213.266 231.272C218.919 231.461 225.436 231.663 226.466 231.676ZM225.497 207.105C225.744 207.221 226.019 207.267 226.291 207.237C226.562 207.207 226.82 207.102 227.035 206.933L227.579 206.495C227.856 206.279 228.047 205.97 228.115 205.625C228.184 205.28 228.125 204.922 227.951 204.617L228.276 204.296C230.519 203.916 232.734 203.378 234.902 202.686C234.984 204.667 235.54 206.599 236.523 208.32C236.717 209.421 237.078 210.487 237.593 211.479C236.594 211.396 235.507 211.339 234.468 211.348C233.561 211.329 232.653 211.386 231.755 211.519C228.416 212.076 227.995 218.184 227.995 218.184C227.995 218.184 221.286 220.544 217.254 220.628C216.743 220.63 216.235 220.554 215.746 220.404L215.339 220.377L215.887 218.877C215.887 218.877 215.65 218.951 215.26 219.03C215.386 218.84 215.517 218.647 215.654 218.451C218.205 214.787 222.622 210.066 225.497 207.113V207.105ZM211.71 281.235C211.197 282.114 210.736 283.022 210.33 283.955C208.748 284.263 206.591 284.434 205.448 283.455C204.931 283.032 204.283 282.804 203.616 282.81L203.642 282.758C204.431 281.244 205.101 277.852 205.627 274.342C208.178 274.342 210.601 272.205 210.601 272.205L213.814 273.306L213.932 273.53L214.011 273.675L214.138 273.912L214.217 274.061L214.344 274.294L214.427 274.443L214.554 274.671L214.638 274.82L214.76 275.044L214.844 275.193L214.971 275.417L215.054 275.562L215.181 275.781L215.26 275.921L215.387 276.141L215.466 276.277L215.589 276.492L215.667 276.628L215.795 276.843L215.869 276.966L215.996 277.176L216.071 277.299L216.198 277.51L216.263 277.62L216.395 277.835L216.443 277.913C216.671 278.286 216.881 278.642 217.096 278.975L217.127 279.024L217.25 279.217L217.302 279.3L217.412 279.476L217.473 279.568L217.574 279.726L217.635 279.827L217.727 279.971L217.793 280.072L217.881 280.208L217.942 280.305L218.021 280.428L218.082 280.524L218.157 280.638L218.218 280.735L218.288 280.84L218.35 280.932C216.156 281.295 213.927 281.396 211.71 281.235Z" fill="url(#paint0_linear)"/>
<path d="M301.739 290.581C297.939 291.805 280.975 290.853 280.567 288.387C280.243 286.426 275.646 274.083 273.831 269.257L273.104 267.326L281.926 265.422C281.926 265.422 282.25 266.971 282.697 269.178C283.512 273.206 284.744 279.423 285.182 282.407C285.861 287.027 287.373 286.211 287.373 286.211C287.373 286.211 305.525 289.357 301.739 290.581Z" fill="#FFBDC6"/>
<path d="M253.812 210.4C253.812 210.4 253.133 214.477 258.97 218.298C264.808 222.12 259.786 235.827 259.786 235.827L255.469 236.069C252.728 236.222 250.033 235.306 247.953 233.513C245.872 231.719 244.567 229.188 244.311 226.451C244.311 226.451 246.752 222.502 242.273 212.318L253.812 210.4Z" fill="#FFBDC6"/>
<path d="M228.587 205.385C228.587 205.385 220.186 213.586 216.281 219.237C215.819 219.892 215.396 220.575 215.015 221.282C212.166 226.718 205.54 217.881 207.832 214.827L209.414 213.349L224.648 199.133C224.648 199.133 235.1 190.98 240.389 196.825C245.679 202.669 228.587 205.385 228.587 205.385Z" fill="#FFBDC6"/>
<path d="M247.248 215.507C253.993 215.507 259.462 210.032 259.462 203.278C259.462 196.525 253.993 191.05 247.248 191.05C240.502 191.05 235.034 196.525 235.034 203.278C235.034 210.032 240.502 215.507 247.248 215.507Z" fill="#A66477"/>
<path d="M197.512 282.832C197.512 282.832 188.418 283.376 187.059 282.832C185.701 282.288 177.019 280.932 179.75 287.185C182.48 293.437 192.779 296.017 192.779 296.017L200.229 294.113L197.512 282.832Z" fill="#7679B4"/>
<path opacity="0.05" d="M197.512 282.832C197.512 282.832 188.418 283.376 187.059 282.832C185.701 282.288 177.019 280.932 179.75 287.185C182.48 293.437 192.779 296.017 192.779 296.017L200.229 294.113L197.512 282.832Z" fill="black"/>
<path d="M229.946 256.067L248.199 263.491L258.581 285.57C258.581 285.57 258.717 293.315 251.933 295.083C245.149 296.851 235.648 296.035 233.202 294.267C230.757 292.499 220.717 282.038 220.717 282.038L229.946 256.067Z" fill="#7679B4"/>
<path opacity="0.05" d="M228.706 256.067L244.505 261.995L253.493 279.664C253.493 279.664 253.611 285.864 247.739 287.277C241.866 288.69 233.641 288.036 231.524 286.623C229.407 285.211 220.717 276.834 220.717 276.834L228.706 256.067Z" fill="black"/>
<path d="M212.981 282.832C212.981 282.832 208.231 284.464 206.333 282.832C204.435 281.2 201.039 283.24 201.039 283.24L202.538 292.073C202.538 292.073 209.322 290.576 212.99 290.984L212.981 282.832Z" fill="#FFBDC6"/>
<path opacity="0.05" d="M212.981 282.832C212.981 282.832 208.231 284.464 206.333 282.832C204.435 281.2 201.039 283.24 201.039 283.24L202.538 292.073C202.538 292.073 209.322 290.576 212.99 290.984L212.981 282.832Z" fill="black"/>
<path d="M215.685 273.323L211.351 271.827C211.351 271.827 206.6 276.039 203.462 272.507C200.325 268.975 206.311 254.298 206.311 254.298L212.687 243.97L217.302 258.511L221.509 265.575L215.685 273.323Z" fill="#565388"/>
<path opacity="0.05" d="M215.685 273.323L211.351 271.827C211.351 271.827 206.6 276.039 203.462 272.507C200.325 268.975 206.311 254.298 206.311 254.298L212.687 243.97L217.302 258.511L221.509 265.575L215.685 273.323Z" fill="black"/>
<path d="M257.086 272.508L266.859 273.864L268.761 282.832L256.683 282.152L257.086 272.508Z" fill="#565388"/>
<path opacity="0.05" d="M257.086 272.508L266.859 273.864L268.761 282.832L256.683 282.152L257.086 272.508Z" fill="black"/>
<path opacity="0.1" d="M243.382 223.321C243.382 223.321 247.454 238.946 260.474 227.669L264.002 272.508C264.002 272.508 259.659 279.436 258.979 285.671C258.3 291.906 246.494 266.365 239.438 266.242C232.383 266.119 225.393 256.255 225.393 256.255L233.334 239.881L243.382 223.321Z" fill="black"/>
<path d="M243.518 222.913C243.518 222.913 247.589 238.538 260.61 227.261L264.137 272.099C264.137 272.099 259.794 279.028 259.115 285.263C258.436 291.497 246.63 265.957 239.574 265.834C232.518 265.711 225.528 255.847 225.528 255.847L233.469 239.472L243.518 222.913Z" fill="#F2F1F2"/>
<path opacity="0.1" d="M241.344 212.856C241.344 212.856 235.647 211.904 232.387 212.448C229.126 212.992 228.723 218.968 228.723 218.968C228.723 218.968 219.493 222.228 216.373 221.162C216.373 221.162 201.035 220.074 201.035 224.694C201.035 229.315 205.925 231.46 205.925 231.46C205.925 231.46 227.22 232.18 227.369 232.14C232.255 230.78 227.233 232.14 227.233 232.14L218.411 245.457L226.554 256.733L235.239 250.349C235.239 250.349 236.326 244.369 239.184 241.381C241.217 239.244 243.877 229.626 245.231 224.304C245.516 223.183 245.576 222.016 245.406 220.872C245.237 219.728 244.842 218.629 244.245 217.639L241.344 212.856Z" fill="black"/>
<path opacity="0.1" d="M216.281 219.236C215.819 219.891 215.396 220.574 215.015 221.281C212.166 226.717 205.54 217.88 207.832 214.826L209.414 213.348C208.836 220.359 214.537 219.613 216.281 219.236Z" fill="black"/>
<path opacity="0.1" d="M227.233 231.609H227.08C227.08 231.609 232.119 230.249 227.233 231.609Z" fill="black"/>
<path d="M240.937 212.856C240.937 212.856 235.24 211.904 231.98 212.448C228.719 212.992 228.316 218.968 228.316 218.968C228.316 218.968 219.087 222.228 215.966 221.162L216.51 219.666C216.51 219.666 208.236 222.246 209.182 213.536C209.182 213.536 200.632 220.056 200.632 224.677C200.632 229.297 205.519 231.46 205.519 231.46C205.519 231.46 226.813 232.18 226.962 232.14C231.848 230.78 226.826 232.14 226.826 232.14L218.004 245.457L226.147 256.733L234.833 250.349C234.833 250.349 235.92 244.369 238.777 241.381C240.81 239.244 243.47 229.626 244.825 224.304C245.109 223.183 245.169 222.016 245 220.872C244.83 219.728 244.436 218.629 243.839 217.639L240.937 212.856Z" fill="#565388"/>
<path opacity="0.1" d="M268.896 257.02V257.765C268.839 257.52 268.839 257.265 268.896 257.02Z" fill="black"/>
<path opacity="0.1" d="M282.697 269.195C279.812 270.085 276.731 270.112 273.831 269.274L273.104 267.344L281.926 265.439C281.926 265.439 282.246 267.001 282.697 269.195Z" fill="black"/>
<path opacity="0.1" d="M256.275 216.253C256.275 216.253 263.874 221.009 266.591 221.689C269.308 222.369 276.364 224.813 276.364 224.813L279.212 234.466C279.212 234.466 280.299 241.803 279.212 245.874C278.126 249.946 267.95 257.695 268.493 256.471L268.221 267.203C268.221 267.203 268.221 282.828 270.413 286.07C272.604 289.313 266.271 282.876 266.271 282.876C266.271 282.876 258.602 271.529 257.655 264.329C256.709 257.129 258.194 229.434 258.194 229.434L256.836 227.529C256.836 227.529 259.667 220.193 256.275 216.253Z" fill="black"/>
<path d="M256.683 216.253C256.683 216.253 264.282 221.009 266.999 221.689C269.716 222.369 276.772 224.813 276.772 224.813L279.62 234.466C279.62 234.466 280.707 241.803 279.62 245.874C278.533 249.946 283.284 268.432 283.284 268.432C283.284 268.432 278.901 270.459 272.832 268.432C272.424 268.296 268.353 257.699 268.888 256.475L268.616 267.207C268.616 267.207 268.616 282.832 270.807 286.075C272.204 288.125 273.897 289.957 275.829 291.511L271.486 292.055C271.486 292.055 258.988 271.556 258.037 264.369C257.086 257.182 258.58 229.447 258.58 229.447L257.222 227.543C257.222 227.543 260.075 220.193 256.683 216.253Z" fill="#565388"/>
<path d="M219.63 281.481C219.63 281.481 210.536 268.317 210.944 262.175C210.944 262.175 209.857 270.599 208.639 271.143C207.42 271.687 195.202 267.879 195.202 267.879C195.202 267.879 194.659 263.93 196.017 262.578C197.376 261.227 201.583 236.081 201.583 236.081C201.583 236.081 203.077 229.289 209.59 228.881C216.102 228.473 230.761 261.626 230.761 261.626C230.761 261.626 232.93 281.481 219.63 281.481Z" fill="#7679B4"/>
<path d="M198.191 263.539C198.191 263.539 198.462 282.56 195.07 285.688C191.678 288.817 204.979 290.445 204.979 290.445C204.979 290.445 202.674 285.824 204.571 282.156C206.469 278.488 207.692 263.539 207.692 263.539H198.191Z" fill="#FFBDC6"/>
<path opacity="0.05" d="M198.865 285.429C198.865 285.429 197.507 282.033 193.843 284.749C193.843 284.749 190.587 292.358 184.885 293.446C179.184 294.534 184.07 297.794 184.342 297.93C184.614 298.066 193.843 299.562 196.012 298.882C198.182 298.202 207.004 296.574 207.004 296.574C207.004 296.574 206.596 287.606 205.251 286.921C203.905 286.237 204.567 290.989 198.865 285.429Z" fill="black"/>
<path d="M198.865 285.688C198.865 285.688 197.507 282.292 193.843 285.008C193.843 285.008 190.587 292.616 184.885 293.705C179.184 294.793 184.07 298.053 184.342 298.189C184.614 298.325 193.843 299.821 196.012 299.141C198.182 298.461 207.008 296.837 207.008 296.837C207.008 296.837 206.6 287.869 205.255 287.184C203.91 286.5 204.567 291.256 198.865 285.688Z" fill="#7679B4"/>
<path d="M224.419 200.308C225.565 202.09 226.799 203.814 228.118 205.472C228.244 205.619 228.338 205.79 228.396 205.975C228.454 206.16 228.474 206.354 228.455 206.547C228.435 206.74 228.377 206.927 228.284 207.096C228.191 207.266 228.064 207.415 227.912 207.534L227.382 207.951C227.23 208.07 227.056 208.157 226.871 208.207C226.685 208.257 226.491 208.269 226.3 208.243C226.11 208.216 225.926 208.151 225.761 208.052C225.596 207.953 225.453 207.822 225.34 207.666C224.152 206.018 222.665 204.608 220.957 203.511C220.762 203.389 220.599 203.222 220.482 203.024C220.365 202.826 220.297 202.603 220.284 202.373C220.271 202.144 220.314 201.914 220.408 201.704C220.502 201.495 220.645 201.31 220.826 201.168L222.338 199.974C222.493 199.851 222.672 199.762 222.864 199.712C223.056 199.662 223.256 199.653 223.451 199.684C223.647 199.715 223.834 199.787 224.001 199.894C224.167 200.002 224.31 200.142 224.419 200.308Z" fill="#565388"/>
<path opacity="0.1" d="M255.386 215.226C253.633 212.756 253.966 210.799 253.966 210.799L242.418 212.721C243.22 214.513 243.879 216.366 244.39 218.262C246.324 218.828 248.376 218.844 250.318 218.307C252.26 217.771 254.015 216.704 255.386 215.226Z" fill="black"/>
<path d="M247.317 218.288C253.312 218.288 258.172 213.423 258.172 207.42C258.172 201.418 253.312 196.552 247.317 196.552C241.322 196.552 236.462 201.418 236.462 207.42C236.462 213.423 241.322 218.288 247.317 218.288Z" fill="#FFBDC6"/>
<path opacity="0.1" d="M242.54 201.755C243.566 201.584 244.477 200.983 245.516 200.931C246.831 200.865 248.018 201.707 248.943 202.576C249.868 203.445 250.766 204.436 252.037 204.814C252.849 205.004 253.687 205.061 254.517 204.98C254.979 205.004 255.437 204.888 255.832 204.647C256.031 204.462 256.181 204.232 256.27 203.976C256.625 203.158 256.804 202.276 256.797 201.385C256.791 200.494 256.598 199.614 256.231 198.803C256.128 198.634 256.085 198.437 256.108 198.241C256.148 198.125 256.212 198.018 256.297 197.929C257.173 196.894 258.098 195.858 258.453 194.604C258.808 193.349 258.374 191.804 257.081 191.247C256.759 191.108 256.411 191.036 256.06 191.036C255.709 191.036 255.361 191.108 255.039 191.247C254.434 191.523 253.965 192.037 253.286 192.173C252.186 192.401 251.244 191.515 250.385 190.856C249.046 189.852 247.447 189.255 245.779 189.136C245.049 189.053 244.31 189.151 243.627 189.422C242.989 189.784 242.4 190.226 241.874 190.738C239.915 192.322 237.172 192.765 234.718 193.629C234.249 193.796 233.727 194.042 233.64 194.507C233.552 194.972 234.078 195.442 234.604 195.643C235.13 195.845 235.734 195.977 236.085 196.385C236.523 196.911 236.383 197.657 236.462 198.32C236.624 199.636 237.777 200.351 239.052 200.733C240.108 201.071 241.493 201.931 242.54 201.755Z" fill="black"/>
<path d="M242.541 201.484C243.566 201.313 244.478 200.712 245.517 200.659C246.831 200.593 248.019 201.436 248.944 202.305C249.868 203.173 250.767 204.165 252.038 204.542C252.85 204.733 253.688 204.789 254.518 204.709C254.98 204.732 255.438 204.616 255.833 204.376C256.031 204.191 256.182 203.961 256.271 203.704C256.625 202.887 256.805 202.004 256.798 201.114C256.791 200.223 256.598 199.343 256.232 198.531C256.129 198.363 256.086 198.165 256.109 197.97C256.148 197.853 256.213 197.747 256.297 197.658C257.174 196.623 258.098 195.587 258.453 194.332C258.808 193.077 258.375 191.533 257.082 190.976C256.759 190.836 256.412 190.765 256.061 190.765C255.709 190.765 255.362 190.836 255.04 190.976C254.435 191.252 253.966 191.765 253.287 191.901C252.187 192.13 251.244 191.243 250.385 190.585C249.06 189.604 247.484 189.02 245.841 188.9C245.111 188.816 244.372 188.914 243.689 189.185C243.051 189.547 242.462 189.99 241.936 190.502C239.977 192.086 237.234 192.529 234.78 193.393C234.311 193.56 233.789 193.806 233.702 194.271C233.614 194.736 234.14 195.205 234.666 195.407C235.192 195.609 235.796 195.741 236.147 196.149C236.585 196.675 236.445 197.421 236.524 198.084C236.686 199.4 237.839 200.115 239.114 200.497C240.109 200.8 241.493 201.66 242.541 201.484Z" fill="#A66477"/>
<path opacity="0.05" d="M233.78 253.768C233.78 253.768 241.533 255.084 243.47 259.274C245.407 263.464 257.055 274.802 257.055 274.802" fill="black"/>
<g opacity="0.05">
<path opacity="0.05" d="M208.91 270.195C207.687 270.74 195.474 266.935 195.474 266.935C195.324 265.753 195.337 264.556 195.513 263.377C194.812 265.071 195.202 267.888 195.202 267.888C195.202 267.888 207.416 271.692 208.638 271.148C209.042 270.968 209.432 269.923 209.773 268.603C209.502 269.45 209.213 270.073 208.91 270.195Z" fill="black"/>
<path opacity="0.05" d="M201.836 235.247C201.736 235.523 201.651 235.804 201.582 236.09C201.582 236.09 198.637 253.697 196.88 260.222C198.506 254.926 201.573 236.813 201.836 235.247Z" fill="black"/>
<path opacity="0.05" d="M219.901 280.524C219.901 280.524 210.808 267.361 211.215 261.218C211.215 261.218 211.119 261.981 210.948 263.061C211.36 269.484 219.629 281.48 219.629 281.48C225.953 281.48 228.78 276.996 230.003 272.288C228.653 276.623 225.8 280.524 219.901 280.524Z" fill="black"/>
</g>
<path d="M196.477 268.279C196.477 268.279 204.769 272.851 207.758 270.674C210.746 268.498 208.845 265.102 208.845 265.102L206.535 261.298H198.8L196.223 265.782L196.477 268.279Z" fill="#7679B4"/>
<path d="M253.019 286.233C253.019 286.233 253.563 275.364 239.719 275.5C225.874 275.636 239.175 275.5 239.175 275.5C239.175 275.5 233.745 273.868 226.961 277.694C220.177 281.52 212.438 280.682 212.438 280.682C212.438 280.682 206.193 291.011 212.03 293.999C217.868 296.987 219.765 292.889 219.765 292.889C219.765 292.889 231.707 295.197 234.425 292.073C236.364 293.997 238.826 295.308 241.504 295.844C244.182 296.379 246.958 296.114 249.487 295.083C249.487 295.083 256.275 292.073 253.019 286.233Z" fill="#7679B4"/>
</g>
<defs>
<linearGradient id="paint0_linear" x1="240.735" y1="300.295" x2="240.735" y2="187.456" gradientUnits="userSpaceOnUse">
<stop stop-color="#808080" stop-opacity="0.25"/>
<stop offset="0.54" stop-color="#808080" stop-opacity="0.12"/>
<stop offset="1" stop-color="#808080" stop-opacity="0.1"/>
</linearGradient>
<clipPath id="clip0">
<rect width="434" height="319" fill="white"/>
</clipPath>
</defs>
</svg>
